<svg xmlns="http://www.w3.org/2000/svg" width="512" height="512" viewBox="0 0 135.4667 135.4667">
  <path fill="#f7df1e" stroke="#404040" stroke-opacity=".2707" stroke-width="8.466611200000001" d="m12.8017 89.9373.3886-45.3459 32.3391-31.7897 45.3459.3886 31.7896 32.3391-.3885 45.3459-32.3391 31.7896-45.346-.3885z"/>
  <path fill="#606060" fill-rule="evenodd" d="m45.6523 12.752-.246.0996 44.4082 109.8632.246-.0996z" color="#000" style="-inkscape-stroke:none"/>
  <path fill="#606060" fill-rule="evenodd" d="m45.3965 12.8008-.9375 109.4746.2656.002.9375-109.4746zm45.3457.3887-.9375 109.4746.2656.002.9375-109.4747z" color="#000" style="-inkscape-stroke:none"/>
  <path fill="#606060" fill-rule="evenodd" d="M-.6816 67.5996v.2676h135.4668v-.2676z" color="#000" style="-inkscape-stroke:none"/>
  <path fill="#606060" fill-rule="evenodd" d="m131.9339 66.55 3.2054 1.1786-3.2054 1.1788c.512-.696.5091-1.6481 0-2.3575zM114.9082 19.869l-95.791 95.7891.1894.1875 95.7891-95.789z" color="#000" style="-inkscape-stroke:none"/>
  <path fill="#606060" fill-rule="evenodd" d="m112.1487 21.1418 3.1001-1.433-1.4331 3.1c-.13-.8542-.8053-1.5254-1.667-1.667z" color="#000" style="-inkscape-stroke:none"/>
  <g fill="#606060" fill-rule="evenodd" color="#000">
    <path d="M59.1621.1719v135.4668h.2676V.1719Z" style="-inkscape-stroke:none"/>
    <path d="m58.1127 3.0236 1.1787-3.2054L60.47 3.0236c-.696-.512-1.648-.5091-2.3574 0z" style="-inkscape-stroke:none"/>
  </g>
  <path fill="none" stroke="#404040" stroke-width="8.466611200000001" d="m12.8017 89.9373.3886-45.3459 32.3391-31.7897 45.3459.3886 31.7896 32.3391-.3885 45.3459-32.3391 31.7896-45.346-.3885z"/>
  <g fill="#404040" stroke-width=".2646" font-family="Arial" font-size="105.833" style="line-height:1.25;-inkscape-font-specification:'Arial, Normal';font-variant-ligatures:none">
    <path d="M67.7333 107.214q8.1132 0 15.2445-3.1006 7.1314-3.1005 12.5574-8.5266 5.4777-5.4776 8.5782-12.609 3.1006-7.183 3.1006-15.2445t-3.1006-15.1928q-3.1005-7.183-8.5782-12.609-5.4777-5.4777-12.609-8.5783-7.1314-3.1005-15.2445-3.1005-8.0615 0-15.1929 3.1005-7.1313 3.1006-12.609 8.5783-5.426 5.426-8.5266 12.609-3.1005 7.1313-3.1005 15.1928 0 8.0615 3.1005 15.2445 3.1006 7.1314 8.5783 12.609 5.4777 5.426 12.609 8.5266t15.1928 3.1006zm0-7.493q-6.6662 0-12.454-2.4288-5.7877-2.4805-10.1802-6.873-4.3925-4.3925-6.873-10.1802-2.4287-5.8394-2.4287-12.5057 0-6.6662 2.4288-12.454 2.4804-5.8394 6.8213-10.2319 4.3924-4.3924 10.1802-6.8212 5.7877-2.4805 12.454-2.4805 6.6662 0 12.454 2.4805 5.8394 2.4288 10.2318 6.8212 4.3925 4.3925 6.873 10.232 2.4804 5.7877 2.4804 12.454.0517 6.6662-2.4287 12.5056-2.4805 5.7877-6.873 10.1802-4.3925 4.3925-10.2319 6.873-5.7877 2.4287-12.454 2.4287zM53.4707 71.4022H81.996q1.6536 0 2.6355-.9818 1.0335-1.0335 1.0335-2.6355 0-1.6536-1.0335-2.6872-.9819-1.0335-2.6355-1.0335H53.4707q-1.7053 0-2.7389 1.0335-1.0335 1.0336-1.0335 2.6872 0 1.602 1.0335 2.6355 1.0336.9818 2.7389.9818zM67.63 85.7167q1.6536 0 2.6871-1.0336 1.0336-1.0335 1.0336-2.6871V53.5224q0-1.7054-1.0336-2.7389Q69.2836 49.75 67.63 49.75q-1.602 0-2.6355 1.0335-.9819 1.0335-.9819 2.7389V81.996q0 1.6536.9819 2.6871 1.0335 1.0336 2.6355 1.0336z" aria-label="⊕" font-family=".SF Compact Rounded" style="-inkscape-font-specification:'.SF Compact Rounded'"/>
  </g>
</svg>
